HIERARCHY
ROOT Hips
{
  OFFSET 5.70366 102.999 -1.77653
  CHANNELS 6 Xposition Yposition Zposition Zrotation Xrotation Yrotation
  JOINT RightUpLeg
  {
    OFFSET -8.9458 -8.66707 0.101652
    CHANNELS 3 Zrotation Xrotation Yrotation
    JOINT RightLeg
    {
      OFFSET 0 -44.4227 1.3727
      CHANNELS 3 Zrotation Xrotation Yrotation
      JOINT RightFoot
      {
        OFFSET 0.253549 -42.0924 -1.46059
        CHANNELS 3 Zrotation Xrotation Yrotation
        JOINT RightToes
        {
          OFFSET 0.04 -4.41509 8.4991
          CHANNELS 3 Zrotation Xrotation Yrotation
          End Site
          {
            OFFSET -0.08 -0.137448 9.77979
          }
        }
      }
    }
  }
  JOINT Spine
  {
    OFFSET 0 11.8905 0
    CHANNELS 3 Zrotation Xrotation Yrotation
    JOINT Spine1
    {
      OFFSET 0 25.6574 0.127663
      CHANNELS 3 Zrotation Xrotation Yrotation
      JOINT HEad
      {
        OFFSET 0 8.73416 0.011341
        CHANNELS 3 Zrotation Xrotation Yrotation
        End Site
        {
          OFFSET -0.29 12.7742 2.51395
        }
      }
      JOINT LeftShoulder1
      {
        OFFSET 8.99 -0.362252 -0.22
        CHANNELS 3 Zrotation Xrotation Yrotation
        JOINT LeftArm
        {
          OFFSET 10.2827 -0.00337999 0.322123
          CHANNELS 3 Zrotation Xrotation Yrotation
          JOINT LeftForeArm
          {
            OFFSET 26.2597 0.099144 -1.42434
            CHANNELS 3 Zrotation Xrotation Yrotation
            JOINT LeftHand
            {
              OFFSET 22.0902 0.085362 1.02216
              CHANNELS 3 Zrotation Xrotation Yrotation
              End Site
              {
                OFFSET 13.419 -0.6 1.50291
              }
            }
          }
        }
      }
      JOINT RightShoulder
      {
        OFFSET -8.99 -0.362252 -0.22
        CHANNELS 3 Zrotation Xrotation Yrotation
        JOINT RightArm
        {
          OFFSET -10.2827 -0.00338 0.322123
          CHANNELS 3 Zrotation Xrotation Yrotation
          JOINT RightForeArm
          {
            OFFSET -26.364 0.099144 -1.42434
            CHANNELS 3 Zrotation Xrotation Yrotation
            JOINT RightHand
            {
              OFFSET -22.0324 0.085362 1.02216
              CHANNELS 3 Zrotation Xrotation Yrotation
              End Site
              {
                OFFSET -13.3284 -0.6 1.50291
              }
            }
          }
        }
      }
    }
  }
  JOINT LeftUpLeg
  {
    OFFSET 8.9458 -8.66707 0.101652
    CHANNELS 3 Zrotation Xrotation Yrotation
    JOINT LeftLeg
    {
      OFFSET 0 -44.4227 1.3727
      CHANNELS 3 Zrotation Xrotation Yrotation
      JOINT LeftFoot
      {
        OFFSET -0.253549 -42.0924 -1.46059
        CHANNELS 3 Zrotation Xrotation Yrotation
        JOINT LeftToes
        {
          OFFSET -0.04 -4.41509 8.4991
          CHANNELS 3 Zrotation Xrotation Yrotation
          End Site
          {
            OFFSET 0.08 -0.047448 9.77979
          }
        }
      }
    }
  }
}
MOTION
Frames:	12
Frame Time:	0.0416667
-178.997 104.221 9.45361 -0.890885 -0.718097 90.5314 2.24218 -4.16528 -0.282369 -1.32462 12.6954 -3.84883 -4.94994 -6.14806 -0.0900453 0.0462048 0.000530889 0.662642 -0.095528 1.5619 0.0170738 -2.95541 -1.86234 0.511659 5.2793 11.9489 0.728114 2.55197 -0.0456751 4.44418 7.77659 -38.8339 11.2327 0.240631 8.52816 -1.42928 1.4399 9.85141 -2.02427 3.31101 0.326127 -2.63586 -8.18912 -30.9626 -18.2749 -6.27984 15.615 4.75505 -2.34798 9.80268 2.60154 -2.48034 -2.24452 1.27746 2.33551 11.6152 17.0743 2.16256 -6.10786 0.000564406 -1.30665e-009 8.75243e-006 -1.47158e-008 
-179.042 104.221 9.44263 -0.974197 -0.748367 90.4755 2.28381 -4.30659 -0.210679 -1.3506 12.7383 -3.84199 -4.78244 -6.13455 -0.090043 0.0462048 0.000530889 0.662642 -0.0658439 1.52422 0.00754312 -3.03408 -1.80265 0.511642 5.24622 11.9707 0.93076 2.62466 -0.0456751 4.44418 7.47606 -38.8777 11.0376 0.231399 8.61891 -1.50037 1.5455 9.85191 -1.93924 3.67935 0.336281 -2.58117 -8.19394 -30.9931 -18.131 -6.24117 15.4701 4.81707 -2.35617 9.80566 2.17547 -2.45182 -2.38253 1.28102 2.3262 11.6604 17.1094 2.14854 -6.10988 0.000564408 -1.30665e-009 8.75243e-006 -1.47158e-008 
-179.102 104.221 9.42764 -1.11731 -0.78163 90.3689 2.36634 -4.53699 -0.0454862 -1.4323 12.7972 -3.87885 -4.7189 -6.11096 -0.090039 0.0462048 0.000530889 0.662642 -0.120742 1.42451 0.0108761 -3.00437 -1.67954 0.511609 5.08512 12.0209 0.947962 2.52966 -0.0456759 4.43128 7.25588 -38.9409 10.7708 0.206354 8.6242 -1.57577 1.53565 9.85205 -1.91424 4.11914 0.338732 -2.59713 -8.07041 -31.2006 -17.7328 -6.26009 15.3019 4.83171 -2.23084 9.8058 2.15333 -2.41333 -2.59691 1.30273 2.29421 11.721 17.1825 2.19001 -6.11916 0.000564417 -1.30665e-009 8.75243e-006 -1.47158e-008 
-179.15 104.221 9.41561 -1.24227 -0.791511 90.2371 2.41111 -4.76226 0.0847719 -1.49453 12.8923 -3.8594 -4.69595 -6.12243 -0.090041 0.0462048 0.000530889 0.662642 -0.257877 1.40321 0.0380197 -2.81555 -1.59998 0.511166 4.98277 12.0332 0.566043 2.25929 -0.050565 4.48375 7.28329 -39.0834 10.528 0.229321 8.66682 -1.60454 1.48258 9.85163 -1.98643 4.20749 0.322553 -2.73449 -7.74893 -31.3864 -17.298 -6.23981 15.1436 4.9292 -2.17534 9.80434 2.30137 -2.40032 -2.76477 1.32083 2.26341 11.7416 17.3029 2.20629 -6.1241 0.000564423 -1.30665e-009 8.75243e-006 -1.47158e-008 
-179.196 104.226 9.40474 -1.29344 -0.811912 90.0754 2.4155 -4.874 0.101032 -1.48318 12.9187 -3.6972 -4.6169 -6.08329 -0.0900344 0.0462048 0.000530889 0.662642 -0.322899 1.57627 0.0515207 -2.6708 -1.62367 0.501876 4.9885 12.0263 0.379393 2.03021 -0.0610675 4.61386 7.48279 -39.2435 10.4363 0.29464 8.77503 -1.61518 1.43113 9.85102 -2.08822 4.09688 0.320317 -2.74462 -7.4504 -31.3505 -17.1275 -6.10055 15.2 5.19767 -2.26014 9.80547 2.10443 -2.3906 -2.83497 1.32303 2.26495 11.7328 17.4504 2.17434 -6.10494 0.000564402 -1.30665e-009 8.75243e-006 -1.47158e-008 
-179.223 104.236 9.39435 -1.31307 -0.856117 89.9124 2.43049 -4.87496 0.0715273 -1.44262 12.8145 -3.51451 -4.63155 -5.97111 -0.0900158 0.0462048 0.000530889 0.662642 -0.251351 1.9051 0.0653725 -2.70032 -1.86318 0.512433 4.88658 11.992 0.490057 2.03964 -0.0528701 4.4959 7.79017 -39.2549 10.6999 0.342647 8.81291 -1.64738 1.36178 9.85041 -2.18559 4.2047 0.335496 -2.63039 -7.5524 -31.2865 -17.221 -6.02616 15.4471 5.43954 -2.27057 9.80596 1.9695 -2.35697 -2.85561 1.33707 2.27664 11.7218 17.5759 2.17362 -6.08196 0.000564378 -1.30665e-009 8.75243e-006 -1.47158e-008 
-179.225 104.24 9.39073 -1.41675 -0.87423 89.7965 2.44088 -4.97906 0.0743658 -1.42594 12.7768 -3.41357 -4.6765 -5.93058 -0.0893 0.0462048 0.000530889 0.662642 -0.179953 2.12709 0.0853703 -2.76996 -2.1358 0.536376 4.65154 11.8848 0.428057 2.20131 -0.0324761 4.2112 7.98539 -39.2052 11.0005 0.361049 8.87486 -1.71175 1.38231 9.84967 -2.29818 4.55362 0.338293 -2.63481 -7.90687 -31.3665 -17.3008 -6.07399 15.4042 5.63446 -2.24672 9.80446 2.03087 -2.33414 -2.94387 1.34859 2.25968 11.6849 17.6814 2.18943 -6.07212 0.000564368 -1.30665e-009 8.75243e-006 -1.47158e-008 
-179.218 104.238 9.4051 -1.60485 -0.859424 89.6968 2.4406 -5.22442 0.105188 -1.43167 12.8476 -3.33363 -4.67675 -5.94777 -0.0875339 0.0462048 0.000530889 0.662642 -0.178587 2.0565 0.0620984 -2.74726 -2.05511 0.513586 4.52705 11.9366 0.328471 2.14112 -0.0391078 4.30451 8.01235 -39.3229 10.8576 0.371705 9.02275 -1.82932 1.4458 9.84877 -2.42666 4.85377 0.346498 -2.59436 -8.05397 -31.4495 -17.4647 -6.1155 15.0276 6.10234 -2.29072 9.80137 2.10258 -2.33644 -3.11668 1.32952 2.23931 11.6381 17.8045 2.18241 -6.06381 0.000564359 -1.30665e-009 8.75243e-006 -1.47158e-008 
-179.203 104.23 9.44555 -1.75909 -0.859559 89.5876 2.48461 -5.40781 0.164399 -1.45263 12.8811 -3.30022 -4.78047 -5.94596 -0.0872713 0.0462048 0.000530889 0.662642 -0.184775 1.99277 0.0162298 -2.64972 -1.86017 0.455796 4.54786 12.3677 0.44239 1.7056 -0.0677925 4.67158 8.0897 -39.5606 10.4853 0.352276 9.16577 -2.11744 1.48167 9.8465 -2.56838 5.12571 0.383146 -2.33877 -7.97866 -31.4653 -17.9414 -6.14367 14.7219 6.92739 -2.38187 9.79336 2.27699 -2.30543 -3.2755 1.33218 2.22741 11.6593 17.9013 2.15903 -6.09518 0.000564392 -1.30665e-009 8.75243e-006 -1.47158e-008 
-179.171 104.212 9.51949 -1.84651 -0.85163 89.5456 2.56144 -5.53068 0.277647 -1.50159 12.9901 -3.4058 -4.88721 -6.05113 -0.0919713 0.0462048 0.000530889 0.662642 -0.269183 2.19651 0.0169132 -2.4568 -1.91866 0.422882 4.49955 13.0249 0.468593 1.09887 -0.0842984 4.82137 8.18326 -39.8165 10.2777 0.266189 9.59563 -2.87961 1.62944 9.83518 -2.83299 5.6886 0.4102 -2.19261 -7.83347 -31.4179 -18.4299 -6.08648 14.5905 7.88168 -2.4913 9.78427 2.42157 -2.23544 -3.37933 1.39115 2.17988 11.7308 17.8795 2.11065 -6.17561 0.000564477 -1.30665e-009 8.75243e-006 -1.47158e-008 
-179.121 104.192 9.63467 -1.97656 -0.774939 89.6197 2.60152 -5.76071 0.423806 -1.56695 13.2665 -3.60844 -4.87672 -6.28036 -0.103453 0.0462048 0.000530889 0.662642 -0.476503 2.27507 0.0530367 -2.22818 -1.8096 0.428082 4.35855 13.8126 0.238751 0.451221 -0.0926879 4.84779 7.98721 -40.23 10.1826 0.153688 10.6329 -4.63154 1.81386 9.81722 -3.52193 6.67422 0.403917 -2.32743 -7.46247 -31.228 -18.7939 -5.82826 14.5986 9.12652 -2.35148 9.7926 2.4145 -2.21137 -3.50537 1.41276 2.13043 11.7613 17.7622 2.05807 -6.21528 0.00056452 -1.30665e-009 8.75243e-006 -1.47158e-008 
-179.031 104.175 9.78945 -2.17841 -0.664572 89.7564 2.60996 -6.02475 0.531605 -1.60038 13.5095 -3.84431 -4.97032 -6.48914 -0.112828 0.0462048 0.000530889 0.662642 -0.577643 2.07081 0.0778137 -2.20359 -1.3717 0.460291 4.33281 14.8582 0.0185702 -0.296532 -0.122409 5.09612 7.36207 -40.7361 10.0963 -0.053437 11.8906 -7.76098 1.8935 9.80035 -4.92616 7.91963 0.391673 -2.50454 -7.05517 -31.9022 -19.6128 -6.22249 16.6861 10.7182 -0.897212 9.89245 3.84224 -2.22088 -3.66773 1.37696 2.12412 11.7563 17.6259 1.96844 -6.2301 0.000564536 -1.30665e-009 8.75243e-006 -1.47158e-008 
